<?xml version="1.0" standalone="no"?>
<!DOCTYPE svg PUBLIC "-//W3C//DTD SVG 20010904//EN"
 "http://www.w3.org/TR/2001/REC-SVG-20010904/DTD/svg10.dtd">
<svg version="1.0" xmlns="http://www.w3.org/2000/svg"
 width="539.000000pt" height="606.000000pt" viewBox="0 0 539.000000 606.000000"
 preserveAspectRatio="xMidYMid meet">

<g transform="translate(0.000000,606.000000) scale(0.100000,-0.100000)"
fill="#000000" stroke="none">
<path d="M0 3030 l0 -3030 2695 0 2695 0 0 3030 0 3030 -2695 0 -2695 0 0
-3030z m2687 2205 c49 -91 90 -211 99 -289 l6 -52 -83 -2 c-46 -1 -110 -7
-141 -12 -206 -37 -435 -164 -604 -335 -121 -122 -254 -344 -299 -497 l-16
-55 -167 5 c-174 5 -328 -7 -417 -33 -30 -9 -37 -13 -17 -10 184 27 469 30
533 7 20 -8 13 -11 -46 -21 -124 -22 -387 -104 -560 -176 -137 -57 -269 -125
-259 -135 5 -4 52 -18 104 -30 342 -79 709 -176 725 -192 7 -7 -206 -47 -315
-58 -52 -5 -148 -10 -212 -10 -65 0 -118 -4 -118 -9 0 -14 126 -105 211 -153
75 -43 76 -43 66 -74 -6 -19 -6 -46 -1 -70 l10 -38 306 -124 307 -124 -53 -49
c-29 -26 -65 -67 -81 -91 -16 -24 -46 -59 -66 -79 -52 -49 -84 -153 -77 -250
4 -44 11 -76 22 -88 9 -9 16 -24 16 -32 0 -8 5 -20 12 -27 9 -9 5 -23 -14 -59
-38 -71 -43 -114 -19 -167 10 -24 28 -49 38 -55 11 -5 35 -24 53 -41 25 -23
41 -31 64 -29 17 2 53 -8 80 -20 40 -19 58 -22 100 -16 28 3 82 6 119 5 68 -1
69 -1 109 41 l40 42 -7 71 c-6 65 -4 74 14 90 27 24 27 71 2 113 -27 43 -12
53 69 49 l64 -3 23 -53 c16 -37 21 -63 17 -89 -8 -52 31 -125 69 -129 28 -3
30 -7 27 -59 -1 -24 5 -36 24 -48 l25 -17 -20 -41 c-21 -42 -21 -42 -77 -43
-31 0 -75 -7 -96 -14 -22 -7 -58 -14 -80 -15 -23 -1 -59 -9 -81 -18 -51 -20
-140 -21 -195 -2 -23 8 -64 15 -91 15 -38 0 -68 10 -144 50 -53 28 -104 50
-113 50 -9 0 -37 14 -62 30 -25 16 -51 30 -58 30 -7 0 -33 9 -58 21 -25 11
-53 19 -62 17 -9 -1 -38 10 -64 25 -25 16 -68 32 -95 37 -26 5 -73 16 -103 24
-30 9 -62 14 -70 11 -9 -3 -52 1 -96 9 -43 7 -90 13 -104 13 -14 0 -50 4 -81
8 -49 6 -58 5 -75 -12 -10 -11 -46 -26 -79 -33 -103 -21 -96 -25 -132 72 -107
285 -153 544 -154 863 -1 360 57 652 193 975 37 86 122 252 149 292 11 14 19
28 19 31 0 9 82 129 134 197 412 533 980 863 1642 955 55 7 128 13 164 12 l64
-2 43 -80z m462 55 c41 -6 77 -13 82 -15 11 -8 31 -137 27 -185 l-3 -44 -29
45 c-16 24 -68 84 -115 132 -67 69 -81 87 -61 83 14 -3 58 -10 99 -16z m769
-268 c21 -16 22 -20 12 -77 -19 -103 -23 -105 -36 -25 -21 126 -19 135 24 102z
m103 -59 c16 -10 29 -22 29 -29 0 -14 -74 -129 -90 -139 -10 -6 -11 -2 -7 16
3 13 8 47 12 74 8 69 14 95 21 95 3 0 19 -8 35 -17z m461 -370 c119 -121 175
-187 267 -317 212 -299 356 -656 416 -1026 26 -160 32 -523 10 -692 -48 -380
-174 -724 -383 -1044 -43 -65 -85 -126 -93 -134 -8 -8 -31 -38 -52 -65 -54
-71 -218 -247 -225 -241 -8 9 46 75 158 191 58 61 117 130 132 155 89 154 2
249 -183 200 -37 -9 -88 -29 -114 -44 -26 -14 -49 -26 -50 -26 -2 0 -3 19 -2
43 2 54 -30 102 -84 124 -33 13 -39 20 -39 44 0 16 2 29 4 29 2 0 34 -11 71
-26 58 -21 72 -23 97 -13 33 14 60 49 77 102 11 33 10 42 -9 81 -20 42 -27 47
-138 96 -239 106 -242 108 -242 128 0 10 -9 27 -20 37 -11 10 -20 26 -20 37 0
15 8 18 53 18 84 0 166 19 244 57 91 43 138 98 198 233 8 19 22 46 31 60 19
31 16 219 -4 242 -10 13 -6 22 23 53 48 50 65 95 65 170 0 80 -14 121 -59 168
-56 59 -129 90 -225 95 -73 4 -88 1 -132 -21 -84 -43 -164 -145 -164 -210 0
-12 8 -39 18 -59 16 -31 17 -38 4 -54 -9 -13 -12 -33 -8 -62 5 -35 1 -50 -23
-90 -16 -26 -32 -57 -35 -68 -7 -21 -8 -21 -82 17 -41 21 -86 39 -100 39 l-24
0 16 38 c10 21 17 65 17 102 1 55 -5 78 -40 155 -58 128 -57 124 -25 136 71
27 162 77 213 116 61 46 139 129 139 147 0 8 -22 10 -71 8 l-71 -4 84 85 c125
127 219 277 267 426 20 62 39 191 28 191 -3 0 -34 -29 -68 -65 -59 -62 -155
-135 -178 -135 -5 0 6 24 26 53 96 140 158 333 178 560 4 37 10 67 14 67 3 0
54 -48 113 -107z m-1211 -391 c17 -34 42 -106 56 -160 22 -87 24 -110 20 -227
-6 -136 2 -147 23 -31 20 109 8 235 -33 358 -34 98 -35 102 -11 73 29 -36 67
-117 97 -205 17 -51 22 -89 22 -177 0 -126 3 -129 69 -51 26 31 36 38 36 25 0
-30 17 -10 24 28 7 38 63 135 78 135 13 0 24 -37 32 -102 4 -32 12 -58 18 -58
5 0 8 -6 5 -13 -3 -8 -1 -20 4 -28 8 -11 14 -8 35 16 24 28 25 35 20 107 -6
80 -31 149 -62 166 -16 9 -16 13 0 57 9 27 16 58 16 69 0 18 2 18 14 6 30 -32
58 -135 63 -230 7 -129 -20 -235 -88 -339 l-23 -33 25 7 c13 4 37 14 53 22
l29 15 -7 -34 c-19 -105 -36 -241 -36 -296 0 -52 7 -80 42 -160 73 -170 58
-260 -65 -381 -74 -74 -174 -126 -267 -141 -241 -37 -610 28 -849 149 -36 19
-40 24 -31 41 5 10 10 29 10 42 -1 20 -2 19 -14 -8 -19 -44 -50 -49 -113 -18
-68 33 -139 113 -158 178 -29 98 -12 202 44 264 59 63 120 52 154 -28 12 -28
27 -50 34 -50 15 0 16 40 3 150 -4 41 -7 76 -6 77 1 2 18 -9 37 -23 35 -26
147 -94 155 -94 14 0 2 34 -120 350 l-25 65 45 -50 c25 -27 61 -76 81 -108 20
-31 38 -55 40 -53 7 7 -43 98 -101 181 -30 44 -54 81 -52 82 11 11 112 -34
142 -62 20 -20 38 -34 39 -33 10 10 62 326 68 405 2 23 6 45 10 49 10 10 61
-32 92 -76 26 -37 27 -44 17 -78 -17 -56 -18 -135 -3 -140 11 -4 11 -6 0 -13
-10 -6 -7 -10 11 -18 22 -8 22 -10 5 -11 -17 0 -17 -2 -5 -10 20 -13 43 -13
35 0 -3 6 3 10 14 10 12 0 21 5 21 10 0 6 4 10 9 10 5 0 12 -27 16 -61 l7 -60
23 21 c28 26 66 105 85 173 7 26 18 46 23 44 6 -2 25 -29 42 -60 16 -31 33
-57 37 -57 4 0 10 16 14 35 8 44 -17 125 -55 180 -26 36 -29 50 -33 150 -3 61
-9 119 -13 130 -14 41 46 -40 76 -103z m1246 -935 c83 -43 123 -108 124 -202
1 -56 -20 -109 -46 -119 -65 -25 -105 38 -82 127 5 18 4 26 -2 23 -9 -6 -24
-75 -25 -121 -1 -14 -11 -21 -36 -27 -46 -10 -88 7 -96 39 -10 36 5 121 27
165 11 22 18 42 15 45 -14 14 -50 -88 -54 -154 -5 -83 -14 -89 -60 -43 -17 17
-37 30 -45 30 -8 0 -20 12 -26 28 -13 33 -2 86 29 139 22 37 22 37 1 19 -27
-24 -64 -123 -59 -158 7 -45 -26 -43 -52 4 -20 35 -21 45 -11 78 14 46 73 112
126 140 34 18 53 21 130 17 73 -3 100 -8 142 -30z m-239 -291 c17 -35 8 -92
-18 -106 -71 -38 -159 31 -129 101 22 54 122 58 147 5z m106 -51 c31 -13 41
-13 78 0 36 12 45 12 58 1 8 -8 24 -16 35 -18 18 -3 18 -5 -7 -22 -15 -10 -45
-20 -67 -23 -23 -3 -38 -10 -35 -15 4 -6 24 -7 45 -4 30 5 39 3 39 -8 0 -30
-106 -35 -205 -10 l-64 16 24 33 c14 17 25 39 25 48 0 21 26 22 74 2z m-2014
-135 c120 -44 124 -45 116 -32 -4 7 -3 12 3 12 18 0 61 -73 81 -138 59 -191
42 -428 -38 -514 -37 -40 -68 -36 -113 13 -43 47 -42 63 4 54 30 -6 31 -5 13
10 -11 8 -16 15 -11 15 4 0 6 3 3 6 -4 3 -16 0 -29 -6 -12 -7 -49 -16 -81 -20
-47 -5 -58 -4 -54 7 7 16 -6 17 -24 1 -8 -7 -6 -3 4 10 23 26 15 28 -22 5
l-27 -17 28 27 c38 37 34 57 -5 21 -24 -22 -29 -25 -23 -9 21 53 9 175 -20
203 -16 16 -17 16 -12 -3 4 -11 9 -33 13 -50 l7 -30 -41 37 c-104 94 -236 147
-401 163 -30 3 -56 7 -59 10 -9 8 43 83 102 146 54 58 65 65 130 82 171 45
327 44 456 -3z m1555 -21 c62 -17 115 -57 115 -88 1 -14 7 -39 15 -56 14 -30
14 -29 8 18 l-6 49 54 -41 c90 -68 153 -86 302 -86 70 0 127 -4 127 -8 0 -4
-9 -26 -21 -49 -48 -95 -197 -216 -274 -224 -22 -2 -53 -6 -68 -10 -15 -3 -50
-1 -77 6 -40 10 -49 16 -55 38 -24 99 -178 353 -249 411 -15 13 -15 15 0 32
20 22 68 25 129 8z m-647 -196 l144 -6 -6 -29 c-8 -38 7 -35 26 6 28 58 74 53
107 -11 9 -19 7 -26 -14 -47 -25 -25 -32 -46 -16 -46 5 0 11 7 15 15 3 8 12
15 21 15 13 0 15 -7 9 -37 -3 -21 -9 -41 -13 -45 -7 -8 -126 32 -161 55 -14 8
-85 36 -157 61 -73 24 -145 54 -160 67 l-28 22 45 -7 c25 -4 110 -9 188 -13z
m-263 -124 c24 -20 80 -49 95 -49 7 0 24 -9 39 -19 15 -11 39 -23 54 -26 15
-4 30 -11 32 -16 6 -9 -85 21 -142 47 -40 19 -153 92 -153 99 0 8 54 -18 75
-36z m-1052 -320 c64 -16 128 -27 141 -23 20 5 25 0 34 -26 12 -32 7 -56 -15
-78 -9 -9 -12 -38 -10 -92 3 -103 -13 -122 -111 -132 -37 -4 -90 -10 -119 -14
-45 -6 -58 -3 -97 20 -25 14 -60 26 -79 26 -28 0 -45 10 -87 50 -30 29 -55 64
-61 84 -12 42 3 117 32 157 12 17 15 30 9 34 -26 16 -3 24 73 27 120 4 159 0
290 -33z m2735 -535 c31 -21 29 -103 -3 -142 -6 -6 -125 58 -125 67 0 13 37
24 50 16 6 -4 9 -1 8 5 -2 7 13 18 32 25 35 13 35 13 7 14 -16 1 -43 -6 -61
-14 -35 -17 -141 -102 -115 -92 11 3 27 -5 43 -22 15 -15 47 -38 71 -50 48
-24 48 -26 7 -73 l-24 -27 -47 24 c-25 13 -61 34 -78 46 -18 11 -33 18 -33 15
0 -7 112 -81 133 -89 9 -3 7 -10 -5 -22 -15 -16 -19 -16 -70 8 -29 15 -64 34
-78 44 l-25 17 18 -21 c10 -12 43 -34 72 -49 41 -22 51 -31 43 -41 -6 -7 -17
-13 -24 -13 -7 0 -11 -6 -8 -13 2 -7 -4 -21 -15 -31 -18 -16 -22 -16 -86 13
-37 17 -63 25 -57 18 6 -6 33 -21 61 -32 28 -11 51 -22 51 -25 -1 -15 -20 -32
-31 -28 -99 40 -119 47 -119 43 0 -3 28 -17 61 -32 l61 -28 -20 -25 c-19 -24
-20 -24 -61 -8 -47 19 -48 7 -1 -12 32 -13 34 -18 22 -37 -9 -14 -75 0 -100
19 -7 6 -15 8 -19 5 -3 -4 17 -17 46 -30 l51 -22 -42 -62 c-46 -67 -65 -75
-124 -53 -15 6 -29 8 -31 6 -3 -3 15 -10 39 -17 54 -15 60 -21 52 -43 -6 -15
-15 -17 -53 -12 -32 4 -41 3 -31 -4 8 -5 25 -10 38 -10 24 0 27 -7 13 -29 -6
-10 -21 -12 -52 -8 l-44 5 35 -10 c44 -14 42 -12 34 -33 -6 -14 -15 -16 -53
-11 -32 4 -41 3 -31 -4 8 -5 25 -10 38 -10 30 0 28 -14 -9 -50 -36 -34 -54
-38 -63 -14 -12 32 -5 78 30 182 62 182 136 328 232 457 25 33 37 53 28 46
-62 -51 -211 -315 -261 -461 -48 -143 -58 -186 -45 -210 7 -13 7 -20 1 -20
-32 0 -19 126 25 259 29 86 114 257 176 351 48 74 229 264 301 317 68 50 127
64 165 37z m-3546 -89 c26 -3 57 -15 71 -25 23 -18 48 -26 112 -37 34 -5 95
-34 95 -44 0 -8 103 -43 160 -54 19 -4 40 -11 46 -16 6 -5 29 -11 50 -13 21
-1 47 -6 57 -11 10 -4 40 -5 67 -1 40 5 50 3 58 -10 8 -15 21 -16 85 -11 41 3
93 3 114 0 l39 -5 -8 -57 c-6 -48 -66 -276 -114 -436 -38 -128 28 -206 162
-192 78 8 165 59 250 144 l71 73 19 -41 c31 -69 162 -151 293 -184 278 -70
570 -9 779 162 40 33 110 113 131 151 8 14 13 12 41 -11 40 -34 65 -34 100 2
30 29 69 33 88 7 5 -6 7 -53 4 -103 l-4 -93 -112 -54 c-219 -106 -452 -179
-699 -218 -188 -30 -551 -32 -722 -4 -240 38 -449 100 -665 196 -329 146 -651
393 -887 681 l-61 75 41 27 c73 46 61 41 189 86 25 9 50 19 54 23 4 4 16 6 28
3 12 -2 42 -7 68 -10z m3512 -55 c23 -8 25 -13 16 -29 -17 -32 -24 -32 -90 7
-70 41 -81 57 -55 76 16 11 24 9 60 -15 23 -16 54 -33 69 -39z m-2248 -191
c-14 -21 -30 -57 -36 -81 -15 -66 -12 -160 5 -185 10 -14 12 -24 5 -28 -15
-10 -117 5 -137 20 -16 12 -16 18 -5 72 7 32 20 93 28 136 17 95 40 131 97
150 l42 14 13 -30 c12 -27 11 -33 -12 -68z m1739 54 c-4 -10 -23 -65 -41 -122
-37 -112 -51 -141 -121 -239 -50 -71 -73 -72 -48 -3 8 24 15 63 15 87 0 24 5
44 10 44 6 0 10 -7 10 -15 0 -17 36 -39 44 -27 3 5 -4 16 -14 25 -36 30 -35
62 1 123 41 68 112 144 135 144 12 0 14 -5 9 -17z m-2005 -57 c0 -30 -60 -276
-90 -370 -38 -117 -48 -193 -30 -227 12 -23 11 -23 -5 -8 -35 34 -30 93 24
289 28 102 56 218 63 258 8 46 17 72 25 72 7 0 13 -6 13 -14z"/>
<path d="M3730 3755 c-13 -14 -19 -25 -13 -25 5 0 20 11 33 25 13 14 19 25 13
25 -5 0 -20 -11 -33 -25z"/>
<path d="M3185 3567 c-81 -46 -135 -164 -135 -297 0 -127 51 -199 146 -206 47
-3 47 -3 11 5 -113 24 -170 155 -133 302 35 137 109 205 211 196 49 -5 49 -5
20 8 -43 20 -74 18 -120 -8z"/>
<path d="M3596 3528 c-9 -12 -16 -29 -16 -38 0 -8 9 0 20 18 79 129 162 -163
92 -321 -25 -55 -8 -60 20 -6 38 75 32 232 -13 320 -27 54 -76 67 -103 27z"/>
<path d="M3333 3343 c-7 -2 -18 -23 -24 -45 -19 -72 8 -148 53 -148 22 0 48
54 48 100 0 71 -34 111 -77 93z"/>
<path d="M3570 3314 c-23 -58 -3 -144 32 -144 11 0 23 11 28 26 14 35 12 118
-2 132 -20 20 -48 14 -58 -14z"/>
<path d="M2373 3215 c-17 -7 -34 -23 -38 -35 -11 -36 5 -37 33 -2 37 45 58 41
27 -4 -14 -20 -25 -45 -25 -54 0 -9 -2 -39 -5 -66 -7 -64 11 -29 20 39 4 33
16 58 35 80 28 31 29 32 44 12 18 -24 20 -35 6 -35 -19 0 -50 -83 -50 -133 0
-53 18 -69 52 -48 26 16 35 7 30 -27 -5 -36 14 -50 53 -42 l30 7 -32 8 c-29 7
-33 11 -33 41 0 35 -4 38 -52 34 -26 -1 -28 1 -28 40 0 45 23 110 39 110 6 0
12 -15 12 -32 2 -32 2 -32 6 -4 6 37 -13 82 -45 106 -29 23 -36 24 -79 5z"/>
<path d="M3522 3058 c-18 -18 -14 -26 12 -21 19 4 25 0 30 -21 8 -33 36 -35
36 -3 0 43 -51 72 -78 45z"/>
<path d="M3081 2949 c-18 -11 -31 -22 -28 -25 3 -3 16 1 29 9 12 8 34 18 48
22 l25 8 -25 -21 c-33 -28 -16 -27 40 3 l45 24 -50 1 c-33 0 -61 -7 -84 -21z"/>
<path d="M3556 2759 c-14 -11 -26 -27 -26 -35 0 -12 4 -12 24 2 14 8 33 17 43
18 10 2 19 10 21 19 5 24 -29 22 -62 -4z"/>
<path d="M4526 3123 c-6 -14 -5 -15 5 -6 7 7 10 15 7 18 -3 3 -9 -2 -12 -12z"/>
<path d="M4210 2964 c-17 -44 -9 -94 15 -94 6 0 20 10 31 21 19 22 19 22 -3 8
-30 -18 -45 -2 -37 39 5 22 12 32 25 32 11 0 19 -7 20 -17 0 -12 2 -13 6 -5 6
16 -15 42 -33 42 -8 0 -19 -12 -24 -26z"/>
<path d="M4518 1387 c14 -16 82 -60 82 -52 0 2 -21 19 -47 36 -27 18 -42 26
-35 16z"/>
<path d="M4210 990 c8 -5 20 -10 25 -10 6 0 3 5 -5 10 -8 5 -19 10 -25 10 -5
0 -3 -5 5 -10z"/>
<path d="M4260 970 c8 -5 20 -10 25 -10 6 0 3 5 -5 10 -8 5 -19 10 -25 10 -5
0 -3 -5 5 -10z"/>
<path d="M4157 949 c7 -7 15 -10 18 -7 3 3 -2 9 -12 12 -14 6 -15 5 -6 -5z"/>
<path d="M4225 920 c28 -12 37 -12 30 0 -3 6 -16 10 -28 9 -21 0 -21 -1 -2 -9z"/>
<path d="M4078 663 c7 -3 16 -2 19 1 4 3 -2 6 -13 5 -11 0 -14 -3 -6 -6z"/>
<path d="M2290 1182 c0 -23 23 -45 43 -40 10 2 6 11 -14 31 -26 25 -29 26 -29
9z"/>
</g>
</svg>
